<svg width="36" height="24" viewBox="0 0 36 24" xmlns="http://www.w3.org/2000/svg" xmlns:xlink="http://www.w3.org/1999/xlink" overflow="hidden"><g fill="none" fill-rule="evenodd"><rect x="0" y="0" rx="4" width="36" height="24" fill="#FFFFFF"/><g fill-rule="nonzero"><path d="M2 6.813 33.934 6.813 33.934 2 2 2 2 6.813" fill="#004E8C"/><path d="M2 21.986 33.934 21.986 33.934 17.172 2 17.172 2 21.986" fill="#FFA336"/><g fill="#004E8C"><path d="M13.184 8.203 14.822 8.203 10.377 15.671 8.444 15.671 8.269 9.762C8.261 9.494 8.254 9.216 8.156 9.002 8.06396 8.79695 7.90296 8.63064 7.701 8.532 7.48041 8.423 7.23702 8.36815 6.991 8.372L6.991 8.202 10.18 8.202 10.336 13.287 13.184 8.203M15.138 15.671 17.421 8.203 15.39 8.203 13.107 15.671 15.138 15.671M16.318 15.039C16.626 15.362 17.024 15.588 17.567 15.699 18.109 15.809 18.797 15.807 19.449 15.691 20.102 15.576 20.719 15.349 21.154 15.005 21.59 14.662 21.845 14.201 21.969 13.702 22.093 13.203 22.087 12.667 21.825 12.248 21.563 11.828 21.047 11.528 20.617 11.244 20.187 10.96 19.844 10.694 19.701 10.394 19.5686 10.1179 19.6006 9.79115 19.784 9.546 19.951 9.332 20.226 9.237 20.565 9.216 20.905 9.193 21.307 9.244 21.641 9.341 21.974 9.437 22.24 9.581 22.467 9.773L23.144 8.655C22.83 8.422 22.472 8.257 21.968 8.135 21.4045 7.9985 20.8239 7.94594 20.245 7.979 19.7176 8.00983 19.2083 8.18258 18.771 8.479 18.3392 8.77213 17.9919 9.17351 17.764 9.643 17.555 10.094 17.51 10.579 17.638 10.998 17.765 11.416 18.067 11.77 18.378 12.023 18.688 12.276 19.008 12.429 19.29 12.605 19.572 12.78 19.815 12.978 19.945 13.215 20.075 13.452 20.094 13.728 19.937 13.958 19.78 14.188 19.447 14.37 19.064 14.435 18.681 14.499 18.247 14.447 17.844 14.32 17.4429 14.1947 17.0695 13.9937 16.744 13.728L16.318 15.038M23.921 13.943 23.001 15.671 21.364 15.671 25.721 8.203 27.567 8.203 28.19 15.671 26.267 15.671 26.132 13.943 23.921 13.943M25.849 10.317 24.438 12.971 26.056 12.971 25.849 10.317"/></g></g><rect x="0" y="0" rx="4" width="36" height="24"/></g></svg>