<svg width="36" height="24" viewBox="0 0 36 24" xmlns="http://www.w3.org/2000/svg" xmlns:xlink="http://www.w3.org/1999/xlink" overflow="hidden"><g fill="none" fill-rule="evenodd"><rect x="0" y="0" rx="4" width="36" height="24" fill="#FFFFFF"/><g fill-rule="nonzero"><path d="M6.595 7.701 4.265 7.701C4.10393 7.70278 3.96814 7.82159 3.945 7.981L3.002 14.118C2.98432 14.2259 3.05747 14.3277 3.16538 14.3454 3.17517 14.347 3.18508 14.3479 3.195 14.348L4.307 14.348C4.467 14.348 4.602 14.23 4.627 14.068L4.881 12.412C4.90375 12.2524 5.03977 12.1334 5.201 12.132L5.938 12.132C7.473 12.132 8.359 11.369 8.591 9.857 8.695 9.196 8.595 8.676 8.294 8.312 7.962 7.912 7.375 7.701 6.595 7.701ZM6.864 9.942C6.736 10.801 6.098 10.801 5.48 10.801L5.128 10.801 5.375 9.197C5.38881 9.10131 5.47032 9.02998 5.567 9.029L5.727 9.029C6.149 9.029 6.546 9.029 6.751 9.275 6.873 9.422 6.911 9.641 6.864 9.942ZM13.56 9.915 12.445 9.915C12.3483 9.91598 12.2668 9.98731 12.253 10.083L12.203 10.403 12.125 10.287C11.884 9.927 11.345 9.807 10.807 9.807 9.574 9.807 8.521 10.766 8.316 12.111 8.209 12.783 8.361 13.424 8.732 13.871 9.072 14.283 9.558 14.455 10.137 14.455 11.131 14.455 11.682 13.799 11.682 13.799L11.632 14.117C11.6137 14.2248 11.6864 14.327 11.7942 14.3453 11.8037 14.3469 11.8133 14.3478 11.823 14.348L12.829 14.348C12.989 14.348 13.123 14.229 13.149 14.068L13.752 10.145C13.7702 10.0377 13.6981 9.93601 13.5908 9.91777 13.5806 9.91604 13.5703 9.91512 13.56 9.915ZM12.005 12.145C11.897 12.8 11.391 13.239 10.746 13.239 10.422 13.239 10.163 13.133 9.996 12.93 9.832 12.73 9.769 12.444 9.822 12.125 9.922 11.476 10.437 11.022 11.072 11.022 11.389 11.022 11.647 11.13 11.816 11.334 11.986 11.54 12.054 11.828 12.005 12.145ZM19.503 9.915 18.382 9.915C18.2739 9.91573 18.1733 9.97054 18.114 10.061L16.567 12.401 15.912 10.151C15.8722 10.0124 15.7461 9.91648 15.602 9.915L14.499 9.915C14.3891 9.91744 14.302 10.0085 14.3045 10.1184 14.3049 10.1387 14.3085 10.1588 14.315 10.178L15.55 13.901 14.389 15.584C14.297 15.717 14.389 15.899 14.547 15.899L15.667 15.899C15.7738 15.899 15.8736 15.8458 15.933 15.757L19.663 10.227C19.753 10.096 19.66 9.915 19.503 9.915" fill="#283B82"/><path d="M23.216 7.701 20.886 7.701C20.7249 7.70278 20.5891 7.82159 20.566 7.981L19.623 14.118C19.6053 14.2259 19.6784 14.3277 19.7864 14.3454 19.7958 14.347 19.8054 14.3478 19.815 14.348L21.011 14.348C21.1235 14.3466 21.2182 14.2634 21.234 14.152L21.502 12.412C21.5247 12.2524 21.6608 12.1334 21.822 12.132L22.559 12.132C24.094 12.132 24.979 11.369 25.211 9.857 25.316 9.196 25.215 8.676 24.914 8.312 24.583 7.912 23.996 7.701 23.216 7.701ZM23.485 9.942C23.358 10.801 22.719 10.801 22.101 10.801L21.749 10.801 21.996 9.197C22.0094 9.10109 22.0912 9.02956 22.188 9.029L22.349 9.029C22.769 9.029 23.167 9.029 23.372 9.275 23.494 9.422 23.532 9.641 23.485 9.942ZM30.181 9.915 29.066 9.915C28.9692 9.91556 28.8874 9.98709 28.874 10.083L28.824 10.403 28.747 10.287C28.505 9.927 27.967 9.807 27.429 9.807 26.196 9.807 25.143 10.766 24.938 12.111 24.832 12.783 24.983 13.424 25.353 13.871 25.694 14.283 26.18 14.455 26.759 14.455 27.752 14.455 28.303 13.799 28.303 13.799L28.253 14.117C28.2348 14.2248 28.3074 14.327 28.4152 14.3452 28.4254 14.347 28.4357 14.3479 28.446 14.348L29.45 14.348C29.61 14.348 29.745 14.229 29.77 14.068L30.374 10.145C30.3917 10.0371 30.3185 9.93527 30.2106 9.91759 30.2008 9.91599 30.1909 9.91512 30.181 9.915ZM28.626 12.145C28.519 12.8 28.012 13.239 27.366 13.239 27.043 13.239 26.784 13.133 26.617 12.93 26.452 12.73 26.39 12.444 26.442 12.125 26.543 11.476 27.057 11.022 27.692 11.022 28.01 11.022 28.267 11.13 28.437 11.334 28.607 11.54 28.675 11.828 28.626 12.145ZM31.497 7.87 30.54 14.118C30.5223 14.2259 30.5955 14.3277 30.7034 14.3454 30.7128 14.347 30.7224 14.3478 30.732 14.348L31.693 14.348C31.853 14.348 31.989 14.23 32.013 14.068L32.956 7.931C32.9737 7.82309 32.9006 7.72126 32.7927 7.70356 32.7835 7.70206 32.7743 7.70121 32.765 7.701L31.688 7.701C31.5917 7.70247 31.5107 7.77368 31.497 7.869" fill="#469BDB"/></g></g></svg>