<svg width="36" height="24" viewBox="0 0 36 24" xmlns="http://www.w3.org/2000/svg" xmlns:xlink="http://www.w3.org/1999/xlink" overflow="hidden"><defs><path d="M0.75 0.27 21.537 0.27 21.537 2.946 0.75 2.946Z" id="a"/><path d="M0.397 17.428 22.554 17.428 22.554 0.005 0.397 0.005Z" id="c"/></defs><g fill="none" fill-rule="evenodd"><rect x="0" y="0" rx="4" width="36" height="24" fill="#FFFFFF"/><g transform="translate(7 4)"><mask id="d" fill="#FFFFFF"><use width="100%" height="100%" xlink:href="#c"></use></mask><g transform="translate(0.793 14.483)"><mask id="b" fill="#FFFFFF"><use width="100%" height="100%" xlink:href="#a"></use></mask><path d="M4.39 1.928C4.39 1.605 4.6 1.339 4.942 1.339 5.269 1.339 5.49 1.593 5.49 1.928 5.49 2.262 5.27 2.516 4.942 2.516 4.6 2.516 4.391 2.251 4.391 1.928ZM5.863 1.928 5.863 1.009 5.467 1.009 5.467 1.232C5.33116 1.05377 5.11692 0.952994 4.893 0.962 4.383 0.962 3.983 1.367 3.983 1.928 3.983 2.489 4.383 2.893 4.893 2.893 5.11692 2.90201 5.33116 2.80123 5.467 2.623L5.467 2.847 5.863 2.847 5.863 1.927ZM19.222 1.928C19.222 1.605 19.43 1.339 19.772 1.339 20.1 1.339 20.321 1.593 20.321 1.928 20.321 2.262 20.1 2.516 19.773 2.516 19.43 2.516 19.222 2.251 19.222 1.928ZM21.364 2.678C21.385 2.678 21.402 2.682 21.413 2.693 21.425 2.703 21.43 2.715 21.43 2.732 21.4304 2.74462 21.4257 2.75687 21.417 2.766 21.4057 2.77565 21.3918 2.78159 21.377 2.783L21.432 2.847 21.389 2.847 21.339 2.784 21.322 2.784 21.322 2.847 21.286 2.847 21.286 2.677 21.364 2.677ZM21.353 2.906C21.4099 2.90631 21.4609 2.87121 21.481 2.818 21.496 2.78287 21.496 2.74313 21.481 2.708 21.4742 2.6908 21.464 2.67515 21.451 2.662 21.4248 2.63636 21.3896 2.62199 21.353 2.622 21.3338 2.62116 21.3147 2.62457 21.297 2.632 21.2801 2.63886 21.2648 2.64907 21.252 2.662 21.239 2.67515 21.2288 2.6908 21.222 2.708 21.2147 2.72537 21.2112 2.74415 21.212 2.763 21.212 2.783 21.215 2.802 21.222 2.818 21.2426 2.87171 21.2945 2.90686 21.352 2.906ZM21.353 2.58C21.454 2.58054 21.5359 2.662 21.537 2.763 21.5353 2.86571 21.4507 2.94763 21.348 2.94597 21.3005 2.94521 21.255 2.92625 21.221 2.893 21.1492 2.82188 21.1486 2.70601 21.2197 2.6342 21.2549 2.5987 21.303 2.57912 21.353 2.58ZM20.693 1.928 20.693 0.27 20.298 0.27 20.298 1.23C20.1618 1.05228 19.9477 0.95193 19.724 0.961 19.214 0.961 18.814 1.366 18.814 1.927 18.814 2.488 19.214 2.892 19.724 2.892 19.9479 2.90084 20.162 2.8001 20.298 2.622L20.298 2.846 20.694 2.846 20.694 1.926ZM10.77 1.32C11.025 1.32 11.188 1.482 11.23 1.767L10.287 1.767C10.329 1.501 10.489 1.32 10.77 1.32ZM10.778 0.962C10.245 0.962 9.873 1.355 9.873 1.928 9.873 2.512 10.261 2.893 10.805 2.893 11.078 2.893 11.33 2.824 11.55 2.636L11.356 2.339C11.2066 2.46058 11.0206 2.52823 10.828 2.531 10.572 2.531 10.341 2.412 10.284 2.081L11.634 2.081C11.637 2.032 11.641 1.981 11.641 1.928 11.637 1.355 11.288 0.962 10.778 0.962ZM15.551 1.928C15.551 1.605 15.761 1.339 16.103 1.339 16.431 1.339 16.651 1.593 16.651 1.928 16.651 2.262 16.431 2.516 16.103 2.516 15.761 2.516 15.551 2.251 15.551 1.928ZM17.024 1.928 17.024 1.009 16.628 1.009 16.628 1.232C16.4917 1.05374 16.2772 0.953005 16.053 0.962 15.544 0.962 15.144 1.367 15.144 1.928 15.144 2.489 15.544 2.893 16.054 2.893 16.313 2.893 16.502 2.789 16.628 2.623L16.628 2.847 17.024 2.847 17.024 1.927ZM13.319 1.928C13.319 2.486 13.703 2.893 14.289 2.893 14.5268 2.9047 14.7602 2.82652 14.943 2.674L14.753 2.351C14.6167 2.45601 14.45 2.51391 14.278 2.516 13.962 2.512 13.73 2.281 13.73 1.928 13.73 1.574 13.962 1.343 14.278 1.339 14.4502 1.34108 14.617 1.39937 14.753 1.505L14.943 1.182C14.7605 1.02885 14.5269 0.950278 14.289 0.962 13.703 0.962 13.319 1.371 13.319 1.928ZM18.416 0.962C18.2188 0.956787 18.0347 1.06056 17.937 1.232L17.937 1.009 17.544 1.009 17.544 2.847 17.94 2.847 17.94 1.817C17.94 1.512 18.07 1.343 18.329 1.343 18.4133 1.34231 18.4969 1.35829 18.575 1.39L18.698 1.013C18.6076 0.980313 18.5122 0.963401 18.416 0.963ZM7.819 1.155C7.629 1.028 7.366 0.962 7.077 0.962 6.617 0.962 6.32 1.185 6.32 1.551 6.32 1.851 6.54 2.036 6.948 2.093L7.134 2.12C7.351 2.15 7.454 2.208 7.454 2.313 7.454 2.454 7.309 2.535 7.039 2.535 6.82141 2.54137 6.6081 2.47368 6.434 2.343L6.247 2.655C6.465 2.816 6.738 2.893 7.035 2.893 7.56 2.893 7.865 2.643 7.865 2.293 7.865 1.97 7.625 1.801 7.229 1.743L7.043 1.716C6.872 1.693 6.734 1.658 6.734 1.536 6.734 1.401 6.864 1.32 7.081 1.32 7.313 1.32 7.537 1.409 7.647 1.478L7.819 1.155ZM12.919 0.962C12.7219 0.95723 12.538 1.06088 12.44 1.232L12.44 1.009 12.048 1.009 12.048 2.847 12.444 2.847 12.444 1.817C12.444 1.512 12.574 1.343 12.832 1.343 12.9166 1.34218 13.0006 1.35816 13.079 1.39L13.201 1.013C13.1106 0.980313 13.0152 0.963401 12.919 0.963ZM9.546 1.009 8.899 1.009 8.899 0.451 8.499 0.451 8.499 1.009 8.13 1.009 8.13 1.375 8.5 1.375 8.5 2.212C8.5 2.639 8.663 2.893 9.131 2.893 9.30595 2.89354 9.47739 2.84391 9.625 2.75L9.51 2.41C9.40406 2.47369 9.28355 2.50915 9.16 2.513 8.963 2.513 8.898 2.391 8.898 2.205L8.898 1.375 9.545 1.375 9.545 1.01ZM3.633 2.847 3.633 1.693C3.633 1.259 3.36 0.966 2.919 0.963 2.686 0.958 2.447 1.033 2.279 1.29 2.15468 1.0785 1.92415 0.952479 1.679 0.962 1.46513 0.951501 1.26192 1.05596 1.146 1.236L1.146 1.009 0.75 1.009 0.75 2.847 1.15 2.847 1.15 1.827C1.15 1.508 1.324 1.339 1.595 1.339 1.857 1.339 1.991 1.512 1.991 1.824L1.991 2.847 2.39 2.847 2.39 1.827C2.39 1.508 2.572 1.339 2.834 1.339 3.104 1.339 3.234 1.512 3.234 1.824L3.234 2.847 3.634 2.847Z" fill="#231F20" mask="url(#b)"/></g><path d="M8.48 12.37 14.471 12.37 14.471 1.484 8.479 1.484Z" fill="#FF5F00" mask="url(#d)"/><path d="M8.86 6.927C8.85529 4.80894 9.81835 2.80474 11.475 1.485 10.2732 0.525615 8.78076 0.00368067 7.243 0.00500001 3.462 0.005 0.397 3.105 0.397 6.927 0.397 10.75 3.462 13.849 7.243 13.849 8.78076 13.8503 10.2732 13.3284 11.475 12.369 9.81835 11.0493 8.85529 9.04506 8.86 6.927" fill="#EB001B" mask="url(#d)"/><path d="M22.554 6.927C22.554 10.75 19.489 13.849 15.707 13.849 14.1692 13.8506 12.6766 13.3287 11.475 12.369 13.132 11.0495 14.0955 9.04523 14.091 6.927 14.0955 4.80877 13.132 2.80454 11.475 1.485 12.6766 0.525333 14.1692 0.00336246 15.707 0.00500049 19.489 0.005 22.554 3.105 22.554 6.927M22.491 11.283 22.491 10.948 22.403 10.948 22.303 11.178 22.202 10.948 22.115 10.948 22.115 11.283 22.176 11.283 22.176 11.03 22.271 11.248 22.335 11.248 22.429 11.03 22.429 11.283 22.491 11.283ZM21.937 11.283 21.937 11.005 22.049 11.005 22.049 10.948 21.763 10.948 21.763 11.005 21.876 11.005 21.876 11.283 21.937 11.283Z" fill="#F79E1B" mask="url(#d)"/></g></g></svg>